<svg width="20" height="24" viewBox="0 0 20 24" fill="none" xmlns="http://www.w3.org/2000/svg">
<g clip-path="url(#clip0_17_341)">
<path d="M16.6202 12.6854C16.6202 10.7076 17.7164 8.98224 19.3427 8.06846C18.4935 7.04091 17.2161 6.12002 15.8079 5.8498C13.8877 5.48091 12.7923 6.09513 12.0838 6.34135C11.3752 6.58758 10.434 6.80891 10.434 6.80891C10.434 6.80891 9.49372 6.58758 8.78423 6.34135C8.07654 6.09513 6.98121 5.48002 5.06099 5.84891C3.14077 6.2178 1.46397 7.79735 0.782424 9.20535C-0.531978 11.9227 0.00892813 15.3414 0.937483 17.8C1.86514 20.2596 4.31815 23.696 6.22033 23.9725C7.5735 24.1689 8.411 23.2471 10.434 23.0134C12.457 23.2471 13.2945 24.1689 14.6476 23.9725C16.5498 23.696 19.0028 20.2596 19.9305 17.8C19.953 17.7396 19.9765 17.6774 19.999 17.6151C18.0184 16.8311 16.6202 14.9191 16.6202 12.6854ZM9.95349 5.40002C9.95349 5.40002 11.8349 5.64624 13.5433 3.73335C15.2517 1.82046 14.7657 0.0106865 14.7657 0.0106865C14.7657 0.0106865 12.8843 -0.235536 11.1759 1.67735C9.46757 3.59024 9.95349 5.40002 9.95349 5.40002Z" fill="white"/>
</g>
<defs>
<clipPath id="clip0_17_341">
<rect width="20" height="24" fill="white"/>
</clipPath>
</defs>
</svg>
