<svg width="32" height="32" viewBox="0 0 32 32" fill="none" xmlns="http://www.w3.org/2000/svg">
<path d="M26 30V28.563C25.6543 28.653 25.3389 28.8337 25.0863 29.0863C24.8337 29.3389 24.653 29.6543 24.563 30H26Z" fill="white"/>
<path d="M28 13H24V14H28V13Z" fill="white"/>
<path d="M26 22.455C25.387 22.3502 24.8216 22.0578 24.3819 21.6181C23.9422 21.1784 23.6498 20.613 23.545 20H10.455C10.3502 20.613 10.0578 21.1784 9.61808 21.6181C9.17835 22.0578 8.61299 22.3502 8 22.455V27.545C8.61299 27.6498 9.17835 27.9422 9.61808 28.3819C10.0578 28.8216 10.3502 29.387 10.455 30H23.545C23.6498 29.387 23.9422 28.8216 24.3819 28.3819C24.8216 27.9422 25.387 27.6498 26 27.545V22.455ZM17 29.5C16.11 29.5 15.24 29.2361 14.4999 28.7416C13.7599 28.2471 13.1831 27.5443 12.8425 26.7221C12.5019 25.8998 12.4128 24.995 12.5865 24.1221C12.7601 23.2492 13.1887 22.4474 13.818 21.818C14.4474 21.1887 15.2492 20.7601 16.1221 20.5865C16.995 20.4128 17.8998 20.5019 18.7221 20.8425C19.5443 21.1831 20.2471 21.7599 20.7416 22.4999C21.2361 23.24 21.5 24.11 21.5 25C21.4985 26.193 21.024 27.3368 20.1804 28.1804C19.3368 29.024 18.193 29.4985 17 29.5Z" fill="white"/>
<path d="M27 15H25V16H27V15Z" fill="white"/>
<path d="M18 13H14V14H18V13Z" fill="white"/>
<path d="M27.5 29.5V18.5H8V19H26.5C26.6326 19 26.7598 19.0527 26.8536 19.1464C26.9473 19.2402 27 19.3674 27 19.5V29.5H27.5Z" fill="white"/>
<path d="M17 21.5C16.3078 21.5 15.6311 21.7053 15.0555 22.0899C14.4799 22.4744 14.0313 23.0211 13.7664 23.6606C13.5015 24.3001 13.4322 25.0039 13.5673 25.6828C13.7023 26.3617 14.0356 26.9854 14.5251 27.4749C15.0146 27.9644 15.6383 28.2977 16.3172 28.4327C16.9961 28.5678 17.6999 28.4985 18.3394 28.2336C18.9789 27.9687 19.5256 27.5201 19.9101 26.9445C20.2947 26.3689 20.5 25.6922 20.5 25C20.4989 24.0721 20.1299 23.1824 19.4737 22.5263C18.8176 21.8701 17.9279 21.5011 17 21.5ZM19 26C19 26.3978 18.842 26.7794 18.5607 27.0607C18.2794 27.342 17.8978 27.5 17.5 27.5V28H16.5V27.5C16.1022 27.5 15.7206 27.342 15.4393 27.0607C15.158 26.7794 15 26.3978 15 26H16C16 26.1326 16.0527 26.2598 16.1464 26.3536C16.2402 26.4473 16.3674 26.5 16.5 26.5V25.5C16.1022 25.5 15.7206 25.342 15.4393 25.0607C15.158 24.7794 15 24.3978 15 24C15 23.6022 15.158 23.2206 15.4393 22.9393C15.7206 22.658 16.1022 22.5 16.5 22.5V22H17.5V22.5C17.8978 22.5 18.2794 22.658 18.5607 22.9393C18.842 23.2206 19 23.6022 19 24H18C18 23.8674 17.9473 23.7402 17.8536 23.6464C17.7598 23.5527 17.6326 23.5 17.5 23.5V24.5C17.8978 24.5 18.2794 24.658 18.5607 24.9393C18.842 25.2206 19 25.6022 19 26Z" fill="white"/>
<path d="M29 28V17H9.5V17.5H28C28.1326 17.5 28.2598 17.5527 28.3536 17.6464C28.4473 17.7402 28.5 17.8674 28.5 18V28H29ZM16 24C16 24.1326 16.0527 24.2598 16.1464 24.3536C16.2402 24.4473 16.3674 24.5 16.5 24.5V23.5C16.3674 23.5 16.2402 23.5527 16.1464 23.6464C16.0527 23.7402 16 23.8674 16 24ZM17.5 26.5C17.6326 26.5 17.7598 26.4473 17.8536 26.3536C17.9473 26.2598 18 26.1326 18 26C18 25.8674 17.9473 25.7402 17.8536 25.6464C17.7598 25.5527 17.6326 25.5 17.5 25.5V26.5Z" fill="white"/>
<path d="M17 15H15V16H17V15Z" fill="white"/>
<path d="M26 20H24.563C24.653 20.3457 24.8337 20.6611 25.0863 20.9137C25.3389 21.1663 25.6543 21.3469 26 21.437V20ZM8 28.571V30H9.429C9.33915 29.6564 9.15941 29.3429 8.90827 29.0917C8.65712 28.8406 8.34362 28.6608 8 28.571ZM30 8.32349L15.992 2.04449L2 7.83399V9.49999H30V8.32349ZM16 8.49999C15.5055 8.49999 15.0222 8.35337 14.6111 8.07867C14.2 7.80397 13.8795 7.41352 13.6903 6.9567C13.5011 6.49989 13.4516 5.99722 13.548 5.51227C13.6445 5.02732 13.8826 4.58186 14.2322 4.23223C14.5819 3.8826 15.0273 3.64449 15.5123 3.54803C15.9972 3.45157 16.4999 3.50108 16.9567 3.6903C17.4135 3.87951 17.804 4.19995 18.0787 4.61107C18.3534 5.02219 18.5 5.50554 18.5 5.99999C18.4992 6.66279 18.2356 7.29822 17.7669 7.76688C17.2982 8.23555 16.6628 8.4992 16 8.49999Z" fill="white"/>
<path d="M8 13H4V14H8V13Z" fill="white"/>
<path d="M16 7.5C16.8284 7.5 17.5 6.82843 17.5 6C17.5 5.17157 16.8284 4.5 16 4.5C15.1716 4.5 14.5 5.17157 14.5 6C14.5 6.82843 15.1716 7.5 16 7.5Z" fill="white"/>
<path d="M29 10.5H3V12H29V10.5Z" fill="white"/>
<path d="M9.429 20H8V21.429C8.34362 21.3392 8.65712 21.1594 8.90827 20.9083C9.15941 20.6571 9.33915 20.3436 9.429 20ZM3.5 29H7V26H3V28.5C3 28.6326 3.05268 28.7598 3.14645 28.8536C3.24021 28.9473 3.36739 29 3.5 29Z" fill="white"/>
<path d="M7 15H5V25H7V15Z" fill="white"/>
</svg>
