<svg width="80" height="80" viewBox="0 0 80 80" fill="none" xmlns="http://www.w3.org/2000/svg">
<g clip-path="url(#clip0_15_38)">
<path fill-rule="evenodd" clip-rule="evenodd" d="M40 0C29.3913 0 19.2172 4.21427 11.7157 11.7157C4.21427 19.2172 0 29.3913 0 40C0 50.6087 4.21427 60.7828 11.7157 68.2843C19.2172 75.7857 29.3913 80 40 80C50.6087 80 60.7828 75.7857 68.2843 68.2843C75.7857 60.7828 80 50.6087 80 40C80 29.3913 75.7857 19.2172 68.2843 11.7157C60.7828 4.21427 50.6087 0 40 0ZM39.7 18H40.3L61.3 24C61.7 24.2 62 24.6 62 25V29C62 29.6 61.6 30 61 30H59V33C59 33.6 58.6 34 58 34H57V52H58C58.6 52 59 52.4 59 53V56H61C61.6 56 62 56.4 62 57V61C62 61.6 61.6 62 61 62H19C18.4 62 18 61.6 18 61V57C18 56.4 18.4 56 19 56H21V53C21 52.4 21.4 52 22 52H23V34H22C21.4 34 21 33.6 21 33V30H19C18.4 30 18 29.6 18 29V25C18 24.6 18.3 24.2 18.7 24L39.7 18ZM40 20L20 25.8V28H60V25.7L40 20ZM40 22C40.5304 22 41.0391 22.2107 41.4142 22.5858C41.7893 22.9609 42 23.4696 42 24C42 24.5304 41.7893 25.0391 41.4142 25.4142C41.0391 25.7893 40.5304 26 40 26C39.4696 26 38.9609 25.7893 38.5858 25.4142C38.2107 25.0391 38 24.5304 38 24C38 23.4696 38.2107 22.9609 38.5858 22.5858C38.9609 22.2107 39.4696 22 40 22ZM33 24C33.2652 24 33.5196 24.1054 33.7071 24.2929C33.8946 24.4804 34 24.7348 34 25C34 25.2652 33.8946 25.5196 33.7071 25.7071C33.5196 25.8946 33.2652 26 33 26C32.7348 26 32.4804 25.8946 32.2929 25.7071C32.1054 25.5196 32 25.2652 32 25C32 24.7348 32.1054 24.4804 32.2929 24.2929C32.4804 24.1054 32.7348 24 33 24ZM47 24C47.2652 24 47.5196 24.1054 47.7071 24.2929C47.8946 24.4804 48 24.7348 48 25C48 25.2652 47.8946 25.5196 47.7071 25.7071C47.5196 25.8946 47.2652 26 47 26C46.7348 26 46.4804 25.8946 46.2929 25.7071C46.1054 25.5196 46 25.2652 46 25C46 24.7348 46.1054 24.4804 46.2929 24.2929C46.4804 24.1054 46.7348 24 47 24ZM23 30V32H57V30H23ZM25 34V52H27V34H25ZM29 34V52H37V34H29ZM39 34V52H41V34H39ZM43 34V52H51V34H43ZM53 34V52H55V34H53ZM23 54V56H57V54H23ZM20 58V60H60V58H20Z" fill="#A64D79"/>
</g>
<defs>
<clipPath id="clip0_15_38">
<rect width="80" height="80" fill="white"/>
</clipPath>
</defs>
</svg>
