<svg width="258" height="258" viewBox="0 0 258 258" fill="none" xmlns="http://www.w3.org/2000/svg">
<path d="M112.875 165.281C128.46 165.281 141.094 152.647 141.094 137.062C141.094 121.478 128.46 108.844 112.875 108.844C97.2902 108.844 84.6562 121.478 84.6562 137.062C84.6562 152.647 97.2902 165.281 112.875 165.281Z" fill="#F4EAEA"/>
<path d="M150.325 189.469L75.9084 235.223C75.4588 235.5 74.959 235.685 74.4376 235.768C73.9163 235.851 73.3837 235.83 72.8705 235.706C72.3573 235.582 71.8736 235.359 71.4472 235.048C71.0207 234.736 70.6599 234.344 70.3856 233.893L43.0537 189.469H150.325Z" fill="#BE7E4E"/>
<path d="M150.325 189.469L130.653 201.562H50.5115L43.0537 189.469H150.325Z" fill="#AF5F28"/>
<path d="M173.465 189.469L71.9578 251.872C71.5082 252.149 71.0084 252.334 70.487 252.417C69.9657 252.5 69.4331 252.479 68.9199 252.355C68.4068 252.232 67.923 252.008 67.4966 251.697C67.0701 251.385 66.7094 250.993 66.435 250.542L28.8638 189.469H43.0538L70.3856 233.893C70.66 234.344 71.0208 234.736 71.4472 235.048C71.8737 235.359 72.3574 235.582 72.8706 235.706C73.3838 235.83 73.9163 235.851 74.4377 235.768C74.959 235.685 75.4588 235.5 75.9085 235.223L150.325 189.469H173.465Z" fill="#F4EAEA"/>
<path d="M197.209 70.7081L205.795 84.6562H166.854L191.686 69.3778C192.136 69.1012 192.635 68.9162 193.157 68.8333C193.678 68.7505 194.211 68.7715 194.724 68.8951C195.237 69.0187 195.721 69.2425 196.147 69.5537C196.574 69.8648 196.934 70.2571 197.209 70.7081ZM235.224 132.547C235.5 132.997 235.685 133.497 235.768 134.018C235.851 134.54 235.83 135.072 235.706 135.585C235.583 136.099 235.359 136.582 235.048 137.009C234.736 137.435 234.344 137.796 233.893 138.07L221.719 145.568V110.577L235.224 132.547Z" fill="#BE7E4E"/>
<path d="M251.872 136.538C252.149 136.988 252.334 137.488 252.417 138.009C252.5 138.531 252.479 139.063 252.355 139.576C252.231 140.089 252.008 140.573 251.697 141C251.385 141.426 250.993 141.787 250.542 142.061L221.719 159.799V145.568L233.893 138.07C234.344 137.796 234.736 137.435 235.047 137.009C235.359 136.582 235.582 136.099 235.706 135.585C235.83 135.072 235.851 134.54 235.768 134.018C235.685 133.497 235.5 132.997 235.223 132.547L221.719 110.577V88.6875C221.727 87.8825 221.488 87.0945 221.033 86.43L221.719 87.5184L251.872 136.538ZM219.945 84.6562L221.033 86.43C220.658 85.8883 220.158 85.4445 219.576 85.1359C218.994 84.8272 218.346 84.6627 217.687 84.6562H205.795L197.209 70.7081C196.934 70.2571 196.574 69.8648 196.147 69.5537C195.721 69.2425 195.237 69.0187 194.724 68.8951C194.211 68.7715 193.678 68.7505 193.157 68.8333C192.635 68.9162 192.135 69.1012 191.686 69.3778L166.853 84.6562H143.795L195.636 52.769C196.086 52.4924 196.586 52.3074 197.107 52.2246C197.629 52.1418 198.161 52.1628 198.674 52.2864C199.188 52.41 199.671 52.6338 200.098 52.9449C200.524 53.256 200.885 53.6484 201.159 54.0993L219.945 84.6562Z" fill="#F4EAEA"/>
<path d="M221.719 159.799V185.438C221.719 186.507 221.294 187.532 220.538 188.288C219.782 189.044 218.757 189.469 217.688 189.469H8.0625C6.99335 189.469 5.96798 189.044 5.21198 188.288C4.45597 187.532 4.03125 186.507 4.03125 185.438V88.6875C4.03125 87.6183 4.45597 86.593 5.21198 85.837C5.96798 85.081 6.99335 84.6562 8.0625 84.6562H217.688C218.346 84.6628 218.994 84.8273 219.576 85.1359C220.159 85.4445 220.658 85.8883 221.033 86.43C221.488 87.0946 221.727 87.8826 221.719 88.6875V159.799ZM209.625 173.344V100.781C209.625 99.7121 209.2 98.6867 208.444 97.9307C207.688 97.1747 206.663 96.75 205.594 96.75H20.1562C19.0871 96.75 18.0617 97.1747 17.3057 97.9307C16.5497 98.6867 16.125 99.7121 16.125 100.781V173.344C16.125 174.413 16.5497 175.438 17.3057 176.194C18.0617 176.95 19.0871 177.375 20.1562 177.375H205.594C206.663 177.375 207.688 176.95 208.444 176.194C209.2 175.438 209.625 174.413 209.625 173.344Z" fill="#F4EAEA"/>
<path d="M229.781 140.61V154.84L221.719 159.799V145.568L229.781 140.61Z" fill="#C1AEAE"/>
<path d="M229.781 123.679V140.61L221.719 145.568V110.577L229.781 123.679Z" fill="#AF5F28"/>
<path d="M229.781 100.62V123.679L221.719 110.577V88.6875C221.727 87.8826 221.488 87.0946 221.033 86.43L221.719 87.5184L229.781 100.62ZM221.033 86.43C220.658 85.8883 220.159 85.4445 219.576 85.1359C218.994 84.8273 218.346 84.6628 217.688 84.6562H205.795L200.837 76.5938H214.987L219.945 84.6562L221.033 86.43Z" fill="#C1AEAE"/>
<path d="M179.955 76.5938L166.853 84.6562H143.795L156.896 76.5938H179.955Z" fill="#C1AEAE"/>
<path d="M205.795 84.6562H166.854L179.955 76.5938H200.837L205.795 84.6562Z" fill="#AF5F28"/>
<path d="M205.594 96.75H20.1562C19.0871 96.75 18.0617 97.1747 17.3057 97.9307C16.5497 98.6867 16.125 99.7121 16.125 100.781V173.344C16.125 174.413 16.5497 175.438 17.3057 176.194C18.0617 176.95 19.0871 177.375 20.1562 177.375H205.594C206.663 177.375 207.688 176.95 208.444 176.194C209.2 175.438 209.625 174.413 209.625 173.344V100.781C209.625 99.7121 209.2 98.6867 208.444 97.9307C207.688 97.1747 206.663 96.75 205.594 96.75ZM42.3281 153.188C39.5376 153.188 36.8097 152.36 34.4894 150.81C32.1691 149.259 30.3607 147.056 29.2928 144.478C28.2249 141.899 27.9454 139.062 28.4899 136.326C29.0343 133.589 30.3781 131.075 32.3513 129.101C34.3245 127.128 36.8386 125.784 39.5755 125.24C42.3125 124.695 45.1494 124.975 47.7275 126.043C50.3057 127.111 52.5093 128.919 54.0596 131.239C55.61 133.56 56.4375 136.288 56.4375 139.078C56.4375 142.82 54.951 146.409 52.305 149.055C49.6589 151.701 46.0702 153.188 42.3281 153.188ZM112.875 165.281C105.391 165.281 98.2134 162.308 92.9213 157.016C87.6293 151.724 84.6562 144.547 84.6562 137.062C84.6562 129.578 87.6293 122.401 92.9213 117.109C98.2134 111.817 105.391 108.844 112.875 108.844C116.654 108.847 120.395 109.6 123.88 111.061H123.921C129.908 113.611 134.831 118.15 137.857 123.911C140.883 129.673 141.827 136.303 140.528 142.679C139.229 149.056 135.767 154.789 130.728 158.907C125.689 163.025 119.383 165.277 112.875 165.281ZM183.422 153.188C180.631 153.188 177.903 152.36 175.583 150.81C173.263 149.259 171.454 147.056 170.387 144.478C169.319 141.899 169.039 139.062 169.584 136.326C170.128 133.589 171.472 131.075 173.445 129.101C175.418 127.128 177.932 125.784 180.669 125.24C183.406 124.695 186.243 124.975 188.821 126.043C191.399 127.111 193.603 128.919 195.153 131.239C196.704 133.56 197.531 136.288 197.531 139.078C197.531 142.82 196.045 146.409 193.399 149.055C190.753 151.701 187.164 153.188 183.422 153.188Z" fill="#BE7E4E"/>
<path d="M173.465 189.469L153.792 201.562H130.653L150.325 189.469H173.465Z" fill="#C1AEAE"/>
<path d="M50.5116 201.562H36.3216L28.8638 189.469H43.0538L50.5116 201.562Z" fill="#C1AEAE"/>
<path d="M88.8085 189.469C89.171 192.664 88.4308 195.888 86.7106 198.606C84.9903 201.323 82.3933 203.371 79.3497 204.411C76.3062 205.451 72.9988 205.419 69.9755 204.322C66.9523 203.225 64.3946 201.127 62.7263 198.378C61.0811 195.716 60.3849 192.576 60.751 189.469" fill="#6D342E"/>
<path d="M42.3281 153.188C50.1205 153.188 56.4375 146.871 56.4375 139.078C56.4375 131.286 50.1205 124.969 42.3281 124.969C34.5357 124.969 28.2188 131.286 28.2188 139.078C28.2188 146.871 34.5357 153.188 42.3281 153.188Z" fill="#8D473C"/>
<path d="M183.422 153.188C191.214 153.188 197.531 146.871 197.531 139.078C197.531 131.286 191.214 124.969 183.422 124.969C175.629 124.969 169.312 131.286 169.312 139.078C169.312 146.871 175.629 153.188 183.422 153.188Z" fill="#8D473C"/>
<path d="M88.8085 189.469C89.171 192.664 88.4308 195.888 86.7106 198.606C84.9903 201.323 82.3933 203.371 79.3497 204.411C76.3062 205.451 72.9988 205.419 69.9755 204.322C66.9523 203.225 64.3946 201.127 62.7263 198.378C61.0811 195.716 60.3849 192.576 60.751 189.469M120.938 157.219C120.425 157.219 119.918 157.122 119.442 156.933L99.2857 148.87C98.5177 148.564 97.8624 148.029 97.4085 147.338C96.9547 146.647 96.7242 145.833 96.7484 145.007C96.7726 144.181 97.0503 143.382 97.5438 142.719C98.0373 142.055 98.7229 141.56 99.5074 141.299C113.31 136.7 118.225 129.48 119.974 124.969H100.781C99.7122 124.969 98.6868 124.544 97.9308 123.788C97.1748 123.032 96.7501 122.007 96.7501 120.938C96.7501 119.868 97.1748 118.843 97.9308 118.087C98.6868 117.331 99.7122 116.906 100.781 116.906H124.969C126.038 116.906 127.063 117.331 127.819 118.087C128.575 118.843 129 119.868 129 120.938C129 121.611 128.766 135.523 111.303 144.992L122.433 149.426C123.315 149.766 124.049 150.405 124.508 151.232C124.967 152.058 125.12 153.019 124.942 153.948C124.764 154.876 124.265 155.712 123.533 156.31C122.801 156.908 121.883 157.229 120.938 157.219Z" fill="#8D473C"/>
<path d="M124.969 137.062H100.781C99.7121 137.062 98.6867 136.638 97.9307 135.882C97.1747 135.126 96.75 134.1 96.75 133.031C96.75 131.962 97.1747 130.937 97.9307 130.181C98.6867 129.425 99.7121 129 100.781 129H124.969C126.038 129 127.063 129.425 127.819 130.181C128.575 130.937 129 131.962 129 133.031C129 134.1 128.575 135.126 127.819 135.882C127.063 136.638 126.038 137.062 124.969 137.062Z" fill="#8D473C"/>
</svg>
