<svg width="24" height="24" viewBox="0 0 24 24" fill="none" xmlns="http://www.w3.org/2000/svg">
<g clip-path="url(#clip0_17_331)">
<path fill-rule="evenodd" clip-rule="evenodd" d="M23.7865 9.60487H12.2545C12.2545 10.8049 12.2545 13.2025 12.2461 14.4025H18.9289C18.6733 15.6013 17.7649 17.2801 16.4821 18.1261C16.4821 18.1261 16.4797 18.1333 16.4773 18.1321C14.7721 19.2577 12.5209 19.5133 10.8493 19.1773C8.22973 18.6577 6.15733 16.7581 5.31493 14.3449C5.31973 14.3413 5.32333 14.3077 5.32693 14.3053C4.80013 12.8077 4.80013 10.8037 5.32693 9.60487C6.00493 7.40047 8.14093 5.38927 10.7629 4.83847C12.8737 4.39087 15.2545 4.87567 17.0053 6.51367C17.2381 6.28567 20.2273 3.36727 20.4517 3.12967C14.4697 -2.28833 4.89253 -0.381527 1.30813 6.61327L1.30093 6.62647C0.443997 8.29018 -0.00208042 10.1349 7.29447e-06 12.0063C0.00209501 13.8778 0.452287 15.7215 1.31293 17.3833L1.30093 17.3929C2.09 18.9135 3.19009 20.2511 4.52974 21.3189C5.86939 22.3867 7.41866 23.1608 9.07693 23.5909C12.6889 24.5389 17.2885 23.8909 20.3689 21.1045L20.3725 21.1081C22.9825 18.7585 24.6073 14.7529 23.7865 9.60487Z" fill="white"/>
</g>
<defs>
<clipPath id="clip0_17_331">
<rect width="24" height="24" fill="white"/>
</clipPath>
</defs>
</svg>
