<svg width="374" height="238" viewBox="0 0 374 238" fill="none" xmlns="http://www.w3.org/2000/svg">
<rect width="406" height="216" rx="10" fill="#A64D79"/>
<rect x="24" y="22" width="406" height="216" rx="10" fill="#6A1E55"/>
<g clip-path="url(#clip0_15_24)">
<path fill-rule="evenodd" clip-rule="evenodd" d="M92 50C81.3913 50 71.2172 54.2143 63.7157 61.7157C56.2143 69.2172 52 79.3913 52 90C52 100.609 56.2143 110.783 63.7157 118.284C71.2172 125.786 81.3913 130 92 130C102.609 130 112.783 125.786 120.284 118.284C127.786 110.783 132 100.609 132 90C132 79.3913 127.786 69.2172 120.284 61.7157C112.783 54.2143 102.609 50 92 50ZM91.7 68H92.3L113.3 74C113.7 74.2 114 74.6 114 75V79C114 79.6 113.6 80 113 80H111V83C111 83.6 110.6 84 110 84H109V102H110C110.6 102 111 102.4 111 103V106H113C113.6 106 114 106.4 114 107V111C114 111.6 113.6 112 113 112H71C70.4 112 70 111.6 70 111V107C70 106.4 70.4 106 71 106H73V103C73 102.4 73.4 102 74 102H75V84H74C73.4 84 73 83.6 73 83V80H71C70.4 80 70 79.6 70 79V75C70 74.6 70.3 74.2 70.7 74L91.7 68ZM92 70L72 75.8V78H112V75.7L92 70ZM92 72C92.5304 72 93.0391 72.2107 93.4142 72.5858C93.7893 72.9609 94 73.4696 94 74C94 74.5304 93.7893 75.0391 93.4142 75.4142C93.0391 75.7893 92.5304 76 92 76C91.4696 76 90.9609 75.7893 90.5858 75.4142C90.2107 75.0391 90 74.5304 90 74C90 73.4696 90.2107 72.9609 90.5858 72.5858C90.9609 72.2107 91.4696 72 92 72ZM85 74C85.2652 74 85.5196 74.1054 85.7071 74.2929C85.8946 74.4804 86 74.7348 86 75C86 75.2652 85.8946 75.5196 85.7071 75.7071C85.5196 75.8946 85.2652 76 85 76C84.7348 76 84.4804 75.8946 84.2929 75.7071C84.1054 75.5196 84 75.2652 84 75C84 74.7348 84.1054 74.4804 84.2929 74.2929C84.4804 74.1054 84.7348 74 85 74ZM99 74C99.2652 74 99.5196 74.1054 99.7071 74.2929C99.8946 74.4804 100 74.7348 100 75C100 75.2652 99.8946 75.5196 99.7071 75.7071C99.5196 75.8946 99.2652 76 99 76C98.7348 76 98.4804 75.8946 98.2929 75.7071C98.1054 75.5196 98 75.2652 98 75C98 74.7348 98.1054 74.4804 98.2929 74.2929C98.4804 74.1054 98.7348 74 99 74ZM75 80V82H109V80H75ZM77 84V102H79V84H77ZM81 84V102H89V84H81ZM91 84V102H93V84H91ZM95 84V102H103V84H95ZM105 84V102H107V84H105ZM75 104V106H109V104H75ZM72 108V110H112V108H72Z" fill="#3B1C32"/>
</g>
<path d="M153.632 82V65.2H161.192C162.312 65.2 163.28 65.392 164.096 65.776C164.928 66.144 165.576 66.672 166.04 67.36C166.504 68.032 166.736 68.816 166.736 69.712C166.736 70.496 166.536 71.2 166.136 71.824C165.736 72.432 165.192 72.928 164.504 73.312C165.384 73.664 166.08 74.176 166.592 74.848C167.104 75.52 167.36 76.296 167.36 77.176C167.36 78.136 167.112 78.984 166.616 79.72C166.136 80.44 165.456 81 164.576 81.4C163.712 81.8 162.696 82 161.528 82H153.632ZM156.584 72.208H161C161.848 72.208 162.52 72.008 163.016 71.608C163.528 71.192 163.784 70.64 163.784 69.952C163.784 69.248 163.528 68.696 163.016 68.296C162.52 67.88 161.848 67.672 161 67.672H156.584V72.208ZM156.584 79.528H161.312C162.24 79.528 162.976 79.304 163.52 78.856C164.08 78.392 164.36 77.784 164.36 77.032C164.36 76.28 164.08 75.68 163.52 75.232C162.976 74.784 162.24 74.56 161.312 74.56H156.584V79.528ZM173.616 82.216C172.736 82.216 171.952 82.056 171.264 81.736C170.592 81.416 170.064 80.976 169.68 80.416C169.296 79.84 169.104 79.184 169.104 78.448C169.104 77.264 169.544 76.344 170.424 75.688C171.32 75.032 172.544 74.704 174.096 74.704C175.248 74.704 176.32 74.896 177.312 75.28V74.176C177.312 73.376 177.072 72.776 176.592 72.376C176.128 71.976 175.432 71.776 174.504 71.776C173.96 71.776 173.384 71.856 172.776 72.016C172.168 72.176 171.472 72.44 170.688 72.808L169.68 70.696C170.624 70.264 171.52 69.944 172.368 69.736C173.216 69.512 174.072 69.4 174.936 69.4C176.568 69.4 177.832 69.792 178.728 70.576C179.624 71.36 180.072 72.464 180.072 73.888V82H177.312V81.016C176.784 81.432 176.216 81.736 175.608 81.928C175 82.12 174.336 82.216 173.616 82.216ZM171.768 78.376C171.768 78.92 172 79.36 172.464 79.696C172.928 80.016 173.544 80.176 174.312 80.176C174.904 80.176 175.448 80.096 175.944 79.936C176.456 79.76 176.912 79.504 177.312 79.168V77.2C176.88 76.992 176.424 76.84 175.944 76.744C175.48 76.632 174.968 76.576 174.408 76.576C173.592 76.576 172.944 76.736 172.464 77.056C172 77.376 171.768 77.816 171.768 78.376ZM182.735 82V69.64H185.543V70.792C186.487 69.864 187.687 69.4 189.143 69.4C190.087 69.4 190.919 69.608 191.639 70.024C192.375 70.44 192.951 71.016 193.367 71.752C193.783 72.472 193.991 73.32 193.991 74.296V82H191.183V74.728C191.183 73.832 190.927 73.128 190.415 72.616C189.903 72.104 189.215 71.848 188.351 71.848C187.743 71.848 187.199 71.976 186.719 72.232C186.255 72.472 185.863 72.816 185.543 73.264V82H182.735ZM196.634 82V65.2L199.442 64.696V74.944L205.13 69.64H208.346L202.226 75.376L208.706 82H205.058L199.442 76.264V82H196.634ZM223.01 82.264C221.778 82.264 220.626 82.048 219.554 81.616C218.482 81.168 217.538 80.552 216.722 79.768C215.922 78.968 215.298 78.048 214.85 77.008C214.418 75.952 214.202 74.816 214.202 73.6C214.202 72.384 214.426 71.256 214.874 70.216C215.322 69.16 215.946 68.24 216.746 67.456C217.546 66.656 218.482 66.04 219.554 65.608C220.626 65.16 221.778 64.936 223.01 64.936C224.242 64.936 225.386 65.16 226.442 65.608C227.514 66.04 228.45 66.656 229.25 67.456C230.066 68.24 230.698 69.16 231.146 70.216C231.594 71.256 231.818 72.384 231.818 73.6C231.818 74.816 231.594 75.952 231.146 77.008C230.698 78.048 230.066 78.968 229.25 79.768C228.45 80.552 227.514 81.168 226.442 81.616C225.386 82.048 224.242 82.264 223.01 82.264ZM223.01 79.528C223.826 79.528 224.578 79.384 225.266 79.096C225.97 78.792 226.586 78.376 227.114 77.848C227.642 77.304 228.05 76.672 228.338 75.952C228.626 75.216 228.77 74.432 228.77 73.6C228.77 72.752 228.626 71.968 228.338 71.248C228.05 70.528 227.642 69.904 227.114 69.376C226.586 68.832 225.97 68.416 225.266 68.128C224.578 67.824 223.826 67.672 223.01 67.672C222.194 67.672 221.434 67.824 220.73 68.128C220.026 68.416 219.41 68.832 218.882 69.376C218.37 69.904 217.962 70.528 217.658 71.248C217.37 71.968 217.226 72.752 217.226 73.6C217.226 74.432 217.37 75.216 217.658 75.952C217.962 76.672 218.37 77.304 218.882 77.848C219.41 78.376 220.026 78.792 220.73 79.096C221.434 79.384 222.194 79.528 223.01 79.528ZM235.959 82V72.016H233.127V69.64H235.959V68.104C235.959 66.76 236.335 65.736 237.087 65.032C237.855 64.328 238.951 63.976 240.375 63.976C240.695 63.976 241.015 64 241.335 64.048C241.671 64.08 241.959 64.136 242.199 64.216V66.592C241.911 66.512 241.655 66.456 241.431 66.424C241.207 66.392 240.959 66.376 240.687 66.376C240.047 66.376 239.559 66.528 239.223 66.832C238.903 67.12 238.743 67.568 238.743 68.176V69.64H242.199V72.016H238.743V82H235.959ZM249.187 82V65.2H252.139V82H249.187ZM255.134 82V69.64H257.942V70.792C258.886 69.864 260.086 69.4 261.542 69.4C262.486 69.4 263.318 69.608 264.038 70.024C264.774 70.44 265.35 71.016 265.766 71.752C266.182 72.472 266.39 73.32 266.39 74.296V82H263.582V74.728C263.582 73.832 263.326 73.128 262.814 72.616C262.302 72.104 261.614 71.848 260.75 71.848C260.142 71.848 259.598 71.976 259.118 72.232C258.654 72.472 258.262 72.816 257.942 73.264V82H255.134ZM274.72 82.192C273.568 82.192 272.512 81.912 271.552 81.352C270.592 80.776 269.832 80.008 269.272 79.048C268.728 78.088 268.456 77.008 268.456 75.808C268.456 74.624 268.736 73.552 269.296 72.592C269.856 71.632 270.616 70.872 271.576 70.312C272.536 69.752 273.608 69.472 274.792 69.472C275.432 69.472 276.056 69.568 276.664 69.76C277.272 69.936 277.832 70.208 278.344 70.576V65.2L281.152 64.696V82H278.368V80.896C277.344 81.76 276.128 82.192 274.72 82.192ZM275.128 79.768C275.784 79.768 276.384 79.656 276.928 79.432C277.488 79.192 277.96 78.848 278.344 78.4V73.192C277.96 72.776 277.488 72.456 276.928 72.232C276.384 71.992 275.784 71.872 275.128 71.872C274.408 71.872 273.744 72.048 273.136 72.4C272.544 72.736 272.072 73.2 271.72 73.792C271.384 74.384 271.216 75.056 271.216 75.808C271.216 76.544 271.384 77.216 271.72 77.824C272.072 78.416 272.544 78.888 273.136 79.24C273.744 79.592 274.408 79.768 275.128 79.768ZM283.868 82V69.64H286.676V82H283.868ZM285.26 67.888C284.812 67.888 284.42 67.728 284.084 67.408C283.764 67.088 283.604 66.696 283.604 66.232C283.604 65.768 283.764 65.376 284.084 65.056C284.42 64.736 284.812 64.576 285.26 64.576C285.724 64.576 286.116 64.736 286.436 65.056C286.756 65.376 286.916 65.768 286.916 66.232C286.916 66.696 286.756 67.088 286.436 67.408C286.116 67.728 285.724 67.888 285.26 67.888ZM293.311 82.216C292.431 82.216 291.647 82.056 290.959 81.736C290.287 81.416 289.759 80.976 289.375 80.416C288.991 79.84 288.799 79.184 288.799 78.448C288.799 77.264 289.239 76.344 290.119 75.688C291.015 75.032 292.239 74.704 293.791 74.704C294.943 74.704 296.015 74.896 297.007 75.28V74.176C297.007 73.376 296.767 72.776 296.287 72.376C295.823 71.976 295.127 71.776 294.199 71.776C293.655 71.776 293.079 71.856 292.471 72.016C291.863 72.176 291.167 72.44 290.383 72.808L289.375 70.696C290.319 70.264 291.215 69.944 292.063 69.736C292.911 69.512 293.767 69.4 294.631 69.4C296.263 69.4 297.527 69.792 298.423 70.576C299.319 71.36 299.767 72.464 299.767 73.888V82H297.007V81.016C296.479 81.432 295.911 81.736 295.303 81.928C294.695 82.12 294.031 82.216 293.311 82.216ZM291.463 78.376C291.463 78.92 291.695 79.36 292.159 79.696C292.623 80.016 293.239 80.176 294.007 80.176C294.599 80.176 295.143 80.096 295.639 79.936C296.151 79.76 296.607 79.504 297.007 79.168V77.2C296.575 76.992 296.119 76.84 295.639 76.744C295.175 76.632 294.663 76.576 294.103 76.576C293.287 76.576 292.639 76.736 292.159 77.056C291.695 77.376 291.463 77.816 291.463 78.376Z" fill="white" fill-opacity="0.5"/>
<path d="M154.76 116L162.536 101.576H152.936V99.2H165.464V101.24L157.928 116H154.76ZM174.48 116V111.896H164.976V109.64L174.096 99.2H177.288V109.52H179.328V111.896H177.288V116H174.48ZM168.288 109.52H174.48V102.44L168.288 109.52ZM186.613 116.264C184.325 116.264 182.349 115.504 180.685 113.984L182.317 112.136C183.037 112.776 183.741 113.24 184.429 113.528C185.117 113.8 185.877 113.936 186.709 113.936C187.413 113.936 188.029 113.808 188.557 113.552C189.085 113.28 189.493 112.896 189.781 112.4C190.085 111.904 190.237 111.344 190.237 110.72C190.237 109.792 189.901 109.04 189.229 108.464C188.557 107.888 187.693 107.6 186.637 107.6C186.077 107.6 185.533 107.672 185.005 107.816C184.477 107.96 183.933 108.184 183.373 108.488L181.453 107.912L181.837 99.2H192.109V101.504H184.213L183.997 106.256C184.605 105.968 185.181 105.768 185.725 105.656C186.285 105.544 186.845 105.488 187.405 105.488C188.525 105.488 189.501 105.704 190.333 106.136C191.181 106.552 191.837 107.144 192.301 107.912C192.765 108.68 192.997 109.568 192.997 110.576C192.997 111.712 192.725 112.704 192.181 113.552C191.653 114.4 190.909 115.064 189.949 115.544C188.989 116.024 187.877 116.264 186.613 116.264ZM201.94 116.24C200.564 116.24 199.348 115.896 198.292 115.208C197.252 114.52 196.436 113.56 195.844 112.328C195.252 111.096 194.956 109.664 194.956 108.032C194.956 106.208 195.284 104.616 195.94 103.256C196.596 101.896 197.508 100.84 198.676 100.088C199.86 99.32 201.236 98.936 202.804 98.936C203.62 98.936 204.436 99.064 205.252 99.32C206.068 99.576 206.756 99.936 207.316 100.4L205.828 102.392C205.348 102.04 204.844 101.784 204.316 101.624C203.788 101.448 203.212 101.36 202.588 101.36C201.548 101.36 200.66 101.624 199.924 102.152C199.204 102.664 198.644 103.416 198.244 104.408C197.86 105.4 197.66 106.6 197.644 108.008C198.22 107.224 198.908 106.616 199.708 106.184C200.524 105.752 201.372 105.536 202.252 105.536C203.356 105.536 204.332 105.76 205.18 106.208C206.028 106.64 206.692 107.248 207.172 108.032C207.652 108.8 207.892 109.688 207.892 110.696C207.892 111.752 207.628 112.704 207.1 113.552C206.588 114.384 205.884 115.04 204.988 115.52C204.092 116 203.076 116.24 201.94 116.24ZM201.82 107.672C201.036 107.672 200.292 107.848 199.588 108.2C198.9 108.552 198.292 109.032 197.764 109.64C197.908 110.504 198.164 111.256 198.532 111.896C198.916 112.536 199.388 113.04 199.948 113.408C200.508 113.76 201.14 113.936 201.844 113.936C202.484 113.936 203.06 113.8 203.572 113.528C204.084 113.24 204.484 112.856 204.772 112.376C205.076 111.896 205.228 111.352 205.228 110.744C205.228 110.152 205.084 109.624 204.796 109.16C204.508 108.696 204.108 108.336 203.596 108.08C203.1 107.808 202.508 107.672 201.82 107.672ZM208.554 116L214.986 107.312L208.914 99.2H212.466L216.738 105.08L221.01 99.2H224.442L218.442 107.288L224.946 116H221.394L216.69 109.52L211.986 116H208.554ZM225.218 116L231.65 107.312L225.578 99.2H229.13L233.402 105.08L237.674 99.2H241.106L235.106 107.288L241.61 116H238.058L233.354 109.52L228.65 116H225.218ZM248.755 116.264C247.539 116.264 246.459 116.056 245.515 115.64C244.571 115.224 243.827 114.648 243.283 113.912C242.755 113.16 242.491 112.312 242.491 111.368C242.491 110.728 242.643 110.136 242.947 109.592C243.251 109.032 243.667 108.552 244.195 108.152C244.739 107.736 245.363 107.44 246.067 107.264C245.171 106.96 244.443 106.472 243.883 105.8C243.339 105.128 243.067 104.376 243.067 103.544C243.067 102.664 243.315 101.88 243.811 101.192C244.307 100.488 244.987 99.936 245.851 99.536C246.715 99.136 247.683 98.936 248.755 98.936C249.843 98.936 250.811 99.136 251.659 99.536C252.523 99.936 253.203 100.488 253.699 101.192C254.195 101.88 254.443 102.664 254.443 103.544C254.443 104.376 254.163 105.128 253.603 105.8C253.059 106.472 252.339 106.96 251.443 107.264C252.499 107.552 253.355 108.072 254.011 108.824C254.683 109.56 255.019 110.408 255.019 111.368C255.019 112.312 254.747 113.16 254.203 113.912C253.675 114.648 252.939 115.224 251.995 115.64C251.051 116.056 249.971 116.264 248.755 116.264ZM248.755 106.28C249.331 106.28 249.851 106.168 250.315 105.944C250.779 105.72 251.139 105.416 251.395 105.032C251.667 104.648 251.803 104.208 251.803 103.712C251.803 103.232 251.667 102.8 251.395 102.416C251.139 102.016 250.779 101.704 250.315 101.48C249.851 101.256 249.331 101.144 248.755 101.144C248.179 101.144 247.659 101.256 247.195 101.48C246.731 101.704 246.363 102.016 246.091 102.416C245.835 102.8 245.707 103.232 245.707 103.712C245.707 104.208 245.835 104.648 246.091 105.032C246.363 105.416 246.731 105.72 247.195 105.944C247.659 106.168 248.179 106.28 248.755 106.28ZM248.755 114.032C249.443 114.032 250.051 113.912 250.579 113.672C251.107 113.432 251.523 113.096 251.827 112.664C252.147 112.216 252.307 111.728 252.307 111.2C252.307 110.656 252.147 110.168 251.827 109.736C251.523 109.304 251.107 108.968 250.579 108.728C250.051 108.472 249.443 108.344 248.755 108.344C248.067 108.344 247.459 108.472 246.931 108.728C246.403 108.968 245.979 109.304 245.659 109.736C245.355 110.168 245.203 110.656 245.203 111.2C245.203 111.728 245.355 112.216 245.659 112.664C245.979 113.096 246.403 113.432 246.931 113.672C247.459 113.912 248.067 114.032 248.755 114.032ZM255.921 116L262.353 107.312L256.281 99.2H259.833L264.105 105.08L268.377 99.2H271.809L265.809 107.288L272.313 116H268.761L264.057 109.52L259.353 116H255.921ZM272.585 116L279.017 107.312L272.945 99.2H276.497L280.769 105.08L285.041 99.2H288.473L282.473 107.288L288.977 116H285.425L280.721 109.52L276.017 116H272.585Z" fill="white" fill-opacity="0.5"/>
<path d="M59.84 189L54.08 178.952V176.584H56C56.768 176.584 57.44 176.477 58.016 176.264C58.6133 176.029 59.104 175.699 59.488 175.272C59.8933 174.845 60.1707 174.333 60.32 173.736H54.08V171.368H60.288C60.16 170.813 59.936 170.323 59.616 169.896C59.3173 169.469 58.912 169.139 58.4 168.904C57.9093 168.648 57.312 168.52 56.608 168.52H54.08V166.152H68.512V168.52H63.488C63.8507 168.925 64.1493 169.363 64.384 169.832C64.64 170.301 64.8107 170.813 64.896 171.368H68.512V173.736H64.96C64.7467 175.315 64.1387 176.552 63.136 177.448C62.1333 178.323 60.8427 178.92 59.264 179.24L65.536 189H59.84ZM81.806 189V171.048L77.422 172.872V169.032L83.438 166.6H86.19V189H81.806ZM98.8503 189.352C96.9089 189.352 95.1916 188.872 93.6983 187.912C92.2263 186.931 91.0743 185.576 90.2423 183.848C89.4316 182.099 89.0263 180.083 89.0263 177.8C89.0263 175.496 89.4316 173.48 90.2423 171.752C91.0743 170.024 92.2263 168.68 93.6983 167.72C95.1916 166.739 96.9089 166.248 98.8503 166.248C100.813 166.248 102.53 166.739 104.002 167.72C105.496 168.68 106.648 170.024 107.458 171.752C108.29 173.48 108.706 175.496 108.706 177.8C108.706 180.083 108.29 182.099 107.458 183.848C106.648 185.576 105.496 186.931 104.002 187.912C102.53 188.872 100.813 189.352 98.8503 189.352ZM98.8503 185.544C100.002 185.544 100.994 185.235 101.826 184.616C102.658 183.976 103.298 183.08 103.746 181.928C104.194 180.755 104.418 179.379 104.418 177.8C104.418 176.2 104.194 174.824 103.746 173.672C103.298 172.52 102.658 171.635 101.826 171.016C100.994 170.376 100.002 170.056 98.8503 170.056C97.7196 170.056 96.7383 170.376 95.9062 171.016C95.0743 171.635 94.4343 172.52 93.9863 173.672C93.5383 174.824 93.3143 176.2 93.3143 177.8C93.3143 179.379 93.5383 180.755 93.9863 181.928C94.4343 183.08 95.0743 183.976 95.9062 184.616C96.7383 185.235 97.7196 185.544 98.8503 185.544ZM109.252 193.832L111.46 185.416H116.036L112.58 193.832H109.252ZM127.507 189.352C125.565 189.352 123.848 188.872 122.355 187.912C120.883 186.931 119.731 185.576 118.899 183.848C118.088 182.099 117.683 180.083 117.683 177.8C117.683 175.496 118.088 173.48 118.899 171.752C119.731 170.024 120.883 168.68 122.355 167.72C123.848 166.739 125.565 166.248 127.507 166.248C129.469 166.248 131.187 166.739 132.659 167.72C134.152 168.68 135.304 170.024 136.115 171.752C136.947 173.48 137.363 175.496 137.363 177.8C137.363 180.083 136.947 182.099 136.115 183.848C135.304 185.576 134.152 186.931 132.659 187.912C131.187 188.872 129.469 189.352 127.507 189.352ZM127.507 185.544C128.659 185.544 129.651 185.235 130.483 184.616C131.315 183.976 131.955 183.08 132.403 181.928C132.851 180.755 133.075 179.379 133.075 177.8C133.075 176.2 132.851 174.824 132.403 173.672C131.955 172.52 131.315 171.635 130.483 171.016C129.651 170.376 128.659 170.056 127.507 170.056C126.376 170.056 125.395 170.376 124.562 171.016C123.731 171.635 123.091 172.52 122.643 173.672C122.195 174.824 121.971 176.2 121.971 177.8C121.971 179.379 122.195 180.755 122.643 181.928C123.091 183.08 123.731 183.976 124.562 184.616C125.395 185.235 126.376 185.544 127.507 185.544ZM149.413 189.352C147.471 189.352 145.754 188.872 144.261 187.912C142.789 186.931 141.637 185.576 140.805 183.848C139.994 182.099 139.589 180.083 139.589 177.8C139.589 175.496 139.994 173.48 140.805 171.752C141.637 170.024 142.789 168.68 144.261 167.72C145.754 166.739 147.471 166.248 149.413 166.248C151.375 166.248 153.093 166.739 154.565 167.72C156.058 168.68 157.21 170.024 158.021 171.752C158.853 173.48 159.269 175.496 159.269 177.8C159.269 180.083 158.853 182.099 158.021 183.848C157.21 185.576 156.058 186.931 154.565 187.912C153.093 188.872 151.375 189.352 149.413 189.352ZM149.413 185.544C150.565 185.544 151.557 185.235 152.389 184.616C153.221 183.976 153.861 183.08 154.309 181.928C154.757 180.755 154.981 179.379 154.981 177.8C154.981 176.2 154.757 174.824 154.309 173.672C153.861 172.52 153.221 171.635 152.389 171.016C151.557 170.376 150.565 170.056 149.413 170.056C148.282 170.056 147.301 170.376 146.469 171.016C145.637 171.635 144.997 172.52 144.549 173.672C144.101 174.824 143.877 176.2 143.877 177.8C143.877 179.379 144.101 180.755 144.549 181.928C144.997 183.08 145.637 183.976 146.469 184.616C147.301 185.235 148.282 185.544 149.413 185.544ZM171.319 189.352C169.378 189.352 167.66 188.872 166.167 187.912C164.695 186.931 163.543 185.576 162.711 183.848C161.9 182.099 161.495 180.083 161.495 177.8C161.495 175.496 161.9 173.48 162.711 171.752C163.543 170.024 164.695 168.68 166.167 167.72C167.66 166.739 169.378 166.248 171.319 166.248C173.282 166.248 174.999 166.739 176.471 167.72C177.964 168.68 179.116 170.024 179.927 171.752C180.759 173.48 181.175 175.496 181.175 177.8C181.175 180.083 180.759 182.099 179.927 183.848C179.116 185.576 177.964 186.931 176.471 187.912C174.999 188.872 173.282 189.352 171.319 189.352ZM171.319 185.544C172.471 185.544 173.463 185.235 174.295 184.616C175.127 183.976 175.767 183.08 176.215 181.928C176.663 180.755 176.887 179.379 176.887 177.8C176.887 176.2 176.663 174.824 176.215 173.672C175.767 172.52 175.127 171.635 174.295 171.016C173.463 170.376 172.471 170.056 171.319 170.056C170.188 170.056 169.207 170.376 168.375 171.016C167.543 171.635 166.903 172.52 166.455 173.672C166.007 174.824 165.783 176.2 165.783 177.8C165.783 179.379 166.007 180.755 166.455 181.928C166.903 183.08 167.543 183.976 168.375 184.616C169.207 185.235 170.188 185.544 171.319 185.544ZM185.656 189.32C184.952 189.32 184.344 189.064 183.832 188.552C183.32 188.04 183.064 187.432 183.064 186.728C183.064 186.003 183.31 185.384 183.8 184.872C184.312 184.36 184.931 184.104 185.656 184.104C186.36 184.104 186.968 184.36 187.48 184.872C187.992 185.384 188.248 185.992 188.248 186.696C188.248 187.421 187.992 188.04 187.48 188.552C186.99 189.064 186.382 189.32 185.656 189.32ZM199.975 189.352C198.034 189.352 196.317 188.872 194.823 187.912C193.351 186.931 192.199 185.576 191.367 183.848C190.557 182.099 190.151 180.083 190.151 177.8C190.151 175.496 190.557 173.48 191.367 171.752C192.199 170.024 193.351 168.68 194.823 167.72C196.317 166.739 198.034 166.248 199.975 166.248C201.938 166.248 203.655 166.739 205.127 167.72C206.621 168.68 207.773 170.024 208.583 171.752C209.415 173.48 209.831 175.496 209.831 177.8C209.831 180.083 209.415 182.099 208.583 183.848C207.773 185.576 206.621 186.931 205.127 187.912C203.655 188.872 201.938 189.352 199.975 189.352ZM199.975 185.544C201.127 185.544 202.119 185.235 202.951 184.616C203.783 183.976 204.423 183.08 204.871 181.928C205.319 180.755 205.543 179.379 205.543 177.8C205.543 176.2 205.319 174.824 204.871 173.672C204.423 172.52 203.783 171.635 202.951 171.016C202.119 170.376 201.127 170.056 199.975 170.056C198.845 170.056 197.863 170.376 197.031 171.016C196.199 171.635 195.559 172.52 195.111 173.672C194.663 174.824 194.439 176.2 194.439 177.8C194.439 179.379 194.663 180.755 195.111 181.928C195.559 183.08 196.199 183.976 197.031 184.616C197.863 185.235 198.845 185.544 199.975 185.544ZM221.882 189.352C219.94 189.352 218.223 188.872 216.73 187.912C215.258 186.931 214.106 185.576 213.274 183.848C212.463 182.099 212.058 180.083 212.058 177.8C212.058 175.496 212.463 173.48 213.274 171.752C214.106 170.024 215.258 168.68 216.73 167.72C218.223 166.739 219.94 166.248 221.882 166.248C223.844 166.248 225.562 166.739 227.034 167.72C228.527 168.68 229.679 170.024 230.49 171.752C231.322 173.48 231.738 175.496 231.738 177.8C231.738 180.083 231.322 182.099 230.49 183.848C229.679 185.576 228.527 186.931 227.034 187.912C225.562 188.872 223.844 189.352 221.882 189.352ZM221.882 185.544C223.034 185.544 224.026 185.235 224.858 184.616C225.69 183.976 226.33 183.08 226.778 181.928C227.226 180.755 227.45 179.379 227.45 177.8C227.45 176.2 227.226 174.824 226.778 173.672C226.33 172.52 225.69 171.635 224.858 171.016C224.026 170.376 223.034 170.056 221.882 170.056C220.751 170.056 219.77 170.376 218.938 171.016C218.106 171.635 217.466 172.52 217.018 173.672C216.57 174.824 216.346 176.2 216.346 177.8C216.346 179.379 216.57 180.755 217.018 181.928C217.466 183.08 218.106 183.976 218.938 184.616C219.77 185.235 220.751 185.544 221.882 185.544Z" fill="white" fill-opacity="0.8"/>
<defs>
<clipPath id="clip0_15_24">
<rect width="80" height="80" fill="white" transform="translate(52 50)"/>
</clipPath>
</defs>
</svg>
