<svg width="100" height="100" viewBox="0 0 100 100" fill="none" xmlns="http://www.w3.org/2000/svg">
<path d="M50 8.33325C27.0417 8.33325 8.33337 27.0416 8.33337 49.9999C8.33337 72.9583 27.0417 91.6666 50 91.6666C72.9584 91.6666 91.6667 72.9583 91.6667 49.9999C91.6667 27.0416 72.9584 8.33325 50 8.33325ZM69.9167 40.4166L46.2917 64.0416C45.7084 64.6249 44.9167 64.9583 44.0834 64.9583C43.25 64.9583 42.4584 64.6249 41.875 64.0416L30.0834 52.2499C28.875 51.0416 28.875 49.0416 30.0834 47.8332C31.2917 46.6249 33.2917 46.6249 34.5 47.8332L44.0834 57.4166L65.5 35.9999C66.7084 34.7916 68.7084 34.7916 69.9167 35.9999C71.125 37.2083 71.125 39.1666 69.9167 40.4166Z" fill="#3B1C32"/>
</svg>
