<svg width="32" height="32" viewBox="0 0 32 32" fill="none" xmlns="http://www.w3.org/2000/svg">
<path d="M21.275 0H10.65C8.75627 0 7.21252 1.54375 7.21252 3.4375V28.5625C7.21252 30.4562 8.75627 32 10.65 32H21.275C23.1688 32 24.7125 30.4562 24.7125 28.5625V3.4375C24.7125 1.54375 23.175 0 21.275 0ZM14.6688 1.4125H17.3063C17.6125 1.4125 17.8563 1.69375 17.8563 2.0375C17.8563 2.38125 17.6125 2.6625 17.3063 2.6625H14.6688C14.3625 2.6625 14.1188 2.38125 14.1188 2.0375C14.1188 1.69375 14.3625 1.4125 14.6688 1.4125ZM12.175 1.31875C12.5688 1.31875 12.8938 1.6375 12.8938 2.0375C12.8938 2.4375 12.5688 2.75 12.175 2.75C11.7813 2.75 11.4563 2.43125 11.4563 2.03125C11.4563 1.63125 11.775 1.31875 12.175 1.31875ZM15.9875 29.8188C15.35 29.8188 14.8375 29.3063 14.8375 28.6688C14.8375 28.0312 15.35 27.5187 15.9875 27.5187C16.625 27.5187 17.1375 28.0312 17.1375 28.6688C17.1375 29.3063 16.625 29.8188 15.9875 29.8188ZM22.7125 26.8438H9.21877V4.1625H22.7125V26.8438Z" fill="white"/>
</svg>
