<svg width="225" height="40" viewBox="0 0 225 40" fill="none" xmlns="http://www.w3.org/2000/svg">
<path d="M19.879 39.5899C17.0905 39.5899 14.4986 39.1073 12.1034 38.142C9.70813 37.141 7.59888 35.7646 5.77563 34.0129C3.98813 32.2254 2.59388 30.1697 1.59288 27.846C0.591875 25.4865 0.091375 22.9482 0.091375 20.2312C0.091375 17.5142 0.591875 14.9939 1.59288 12.6701C2.59388 10.3106 3.98813 8.255 5.77563 6.50325C7.59888 4.71575 9.70813 3.33937 12.1034 2.37412C14.5344 1.37312 17.1263 0.872624 19.879 0.872624C21.881 0.872624 23.8294 1.14075 25.7241 1.677C27.6546 2.21325 29.4243 2.98187 31.033 3.98287C32.6775 4.98387 34.0896 6.19937 35.2694 7.62937L30.8185 12.0802C29.4243 10.4 27.7798 9.13087 25.885 8.27287C23.9903 7.41487 21.9883 6.98587 19.879 6.98587C18.02 6.98587 16.304 7.3255 14.731 8.00475C13.158 8.64825 11.7816 9.57775 10.6019 10.7932C9.42213 11.973 8.49263 13.3672 7.81338 14.976C7.16988 16.5847 6.84813 18.3365 6.84813 20.2312C6.84813 22.0902 7.16988 23.8241 7.81338 25.4329C8.49263 27.0416 9.42213 28.4537 10.6019 29.6692C11.8174 30.849 13.2295 31.7785 14.8383 32.4577C16.447 33.1012 18.1988 33.423 20.0935 33.423C22.167 33.423 24.1154 33.0119 25.9386 32.1896C27.7976 31.3316 29.3885 30.1161 30.7113 28.5431L35.0549 32.8867C33.8751 34.2452 32.463 35.4429 30.8185 36.4796C29.2098 37.4806 27.458 38.2492 25.5632 38.7855C23.7043 39.3218 21.8095 39.5899 19.879 39.5899ZM39.5996 39V1.4625L45.8737 0.0682494V13.9571C47.983 11.8836 50.6642 10.8469 53.9175 10.8469C56.0267 10.8469 57.8857 11.3116 59.4945 12.2411C61.139 13.1706 62.426 14.4576 63.3555 16.1021C64.285 17.7109 64.7497 19.6056 64.7497 21.7864V39H58.4756V22.7516C58.4756 20.7496 57.9036 19.1766 56.7596 18.0326C55.6156 16.8886 54.0783 16.3166 52.1478 16.3166C50.7893 16.3166 49.5738 16.6026 48.5013 17.1746C47.4646 17.7109 46.5887 18.4795 45.8737 19.4805V39H39.5996ZM84.0065 39.4826C81.2538 39.4826 78.7692 38.857 76.5527 37.6057C74.3719 36.3545 72.6202 34.6564 71.2974 32.5114C70.0104 30.3306 69.3669 27.8996 69.3669 25.2184C69.3669 22.5371 69.9925 20.124 71.2438 17.979C72.495 15.834 74.1753 14.1359 76.2845 12.8846C78.3938 11.5976 80.7533 10.9541 83.363 10.9541C85.9728 10.9541 88.2787 11.5976 90.2807 12.8846C92.3184 14.1716 93.9272 15.9234 95.1069 18.1399C96.2867 20.3206 96.8765 22.8052 96.8765 25.5938V27.2561H75.7483C76.0343 28.6146 76.5705 29.8122 77.357 30.849C78.1435 31.8857 79.1445 32.708 80.36 33.3157C81.5755 33.8877 82.8804 34.1737 84.2747 34.1737C85.5617 34.1737 86.7772 33.9771 87.9212 33.5839C89.1009 33.1906 90.084 32.6186 90.8705 31.8679L94.946 35.7289C93.3015 37.0159 91.6034 37.9632 89.8517 38.571C88.0999 39.1788 86.1515 39.4826 84.0065 39.4826ZM75.6947 22.698H90.656C90.4058 21.411 89.9232 20.2849 89.2082 19.3196C88.4932 18.3544 87.6173 17.6036 86.5805 17.0674C85.5795 16.4954 84.4713 16.2094 83.2558 16.2094C82.0045 16.2094 80.8427 16.4775 79.7702 17.0137C78.7334 17.55 77.8575 18.3007 77.1425 19.266C76.4633 20.2312 75.9807 21.3752 75.6947 22.698ZM114.896 39.4826C112.215 39.4826 109.784 38.857 107.603 37.6057C105.458 36.3545 103.742 34.6564 102.455 32.5114C101.204 30.3306 100.578 27.8996 100.578 25.2184C100.578 22.5014 101.204 20.0704 102.455 17.9254C103.742 15.7804 105.458 14.0644 107.603 12.7774C109.784 11.4904 112.215 10.8469 114.896 10.8469C117.041 10.8469 119.097 11.258 121.063 12.0802C123.029 12.9025 124.727 14.0822 126.157 15.6195L122.296 19.8022C121.26 18.6582 120.134 17.8181 118.918 17.2819C117.703 16.7099 116.416 16.4239 115.057 16.4239C113.52 16.4239 112.126 16.8171 110.874 17.6036C109.623 18.3544 108.622 19.3911 107.871 20.7139C107.156 22.0366 106.799 23.5381 106.799 25.2184C106.799 26.8629 107.156 28.3644 107.871 29.7229C108.622 31.0456 109.641 32.1002 110.928 32.8867C112.215 33.6375 113.627 34.0129 115.164 34.0129C116.487 34.0129 117.72 33.7447 118.864 33.2085C120.044 32.6722 121.152 31.8679 122.189 30.7954L125.997 34.7636C124.567 36.2651 122.886 37.427 120.956 38.2492C119.025 39.0715 117.005 39.4826 114.896 39.4826ZM130.092 39V1.4625L136.366 0.336374V23.2343L149.075 11.3831H156.261L142.586 24.1995L157.065 39H148.914L136.366 26.1836V39H130.092ZM156.203 39L170.574 19.5877L157.007 1.4625H164.944L174.489 14.6006L184.034 1.4625H191.703L178.296 19.5341L192.829 39H184.892L174.382 24.5212L163.871 39H156.203ZM217.108 39.858C215.035 39.858 213.212 39.1073 211.639 37.6057C210.137 36.1042 209.386 34.3167 209.386 32.2432C209.386 30.1697 210.137 28.3822 211.639 26.8807C213.14 25.3077 214.963 24.5212 217.108 24.5212C219.182 24.5212 220.969 25.272 222.471 26.7735C224.044 28.275 224.83 30.0982 224.83 32.2432C224.83 34.3167 224.08 36.1042 222.578 37.6057C221.077 39.1073 219.253 39.858 217.108 39.858Z" fill="white"/>
</svg>
